<svg id="Capa_1" data-name="Capa 1" xmlns="http://www.w3.org/2000/svg" viewBox="0 0 100 100"><defs><style>.cls-1{fill:#f7f7f8;}.cls-2{fill:#703b8e;}</style></defs><title>incon_serv</title><rect class="cls-1" x="51.8" y="36.2" width="1.15" height="18.29" rx="0.57"/><rect class="cls-1" x="48.69" y="37.03" width="1.15" height="17.61" rx="0.57"/><rect class="cls-1" x="64.37" y="34.42" width="1.18" height="18.32" rx="0.59"/><rect class="cls-1" x="61.17" y="35.25" width="1.18" height="17.64" rx="0.59"/><rect class="cls-1" x="38.87" y="37.65" width="1.18" height="18.29" rx="0.59"/><rect class="cls-1" x="35.67" y="37.65" width="1.18" height="18.44" rx="0.59"/><path class="cls-2" d="M50,.48C26.23.48,6.89,20.31,6.89,44.69,6.89,79.1,50,99.52,50,99.52S93.11,79.1,93.11,44.69C93.11,20.31,73.77.48,50,.48ZM50,79.1A35.48,35.48,0,1,1,85.47,43.62,35.47,35.47,0,0,1,50,79.1Z"/><polygon class="cls-2" points="74 54.47 42.54 59.06 42.54 61.82 74 56.7 74 54.47"/><polygon class="cls-2" points="42.72 62.79 42.72 65.9 76.34 59.52 76.34 56.99 42.72 62.79"/><polygon class="cls-2" points="28.45 59.67 41.32 61.57 41.32 59.26 28.45 57.64 28.45 59.67"/><polygon class="cls-2" points="26.96 63.01 41.51 65.64 41.51 62.98 26.96 60.65 26.96 63.01"/><path class="cls-2" d="M63.35,55.09h-.23A14.29,14.29,0,0,1,61.29,55a10.63,10.63,0,0,1-2.92-.68l-.27-.12V53.12l-2.25.33v2.44l-.2.13a4.12,4.12,0,0,1-.8.36l8.85-1.3Z"/><path class="cls-2" d="M68.61,53.74V54l-.21.13a3.92,3.92,0,0,1-.89.39L71.05,54Z"/><path class="cls-2" d="M50.6,57h-.24a14.37,14.37,0,0,1-1.82-.12,10.78,10.78,0,0,1-2.93-.68l-.26-.12V55l-2.24.32v2l-.2.13a6.64,6.64,0,0,1-2.14.69l1.27.14L50.82,57Z"/><path class="cls-2" d="M67.63,34.54l-8.55,1.39V53.61a11.6,11.6,0,0,0,2.34.5,14.63,14.63,0,0,0,1.92.1,11,11,0,0,0,4.29-.68Z"/><path class="cls-2" d="M46.32,38V55.49a11.25,11.25,0,0,0,2.35.49,12.8,12.8,0,0,0,1.92.11,11,11,0,0,0,4.29-.68V36.62Z"/><path class="cls-2" d="M42.14,38.69l-1.36.21-7.2-.78V56.88a11.25,11.25,0,0,0,2.35.49,13.17,13.17,0,0,0,1.92.11,10.8,10.8,0,0,0,4.29-.69Z"/><polygon class="cls-2" points="56.63 18.2 45 18.21 25.9 33.57 38.93 34.87 56.63 18.2"/><polygon class="cls-2" points="71.56 30.9 41.27 35.45 41.27 37.94 71.56 33.01 71.56 30.9"/><path class="cls-2" d="M40.05,35.92c-.58,0-.92,0-1.12,0v0L26.75,34.75v1.52l13.3,1.46Z"/><polygon class="cls-2" points="73.34 29.75 57.81 18.36 40.48 34.68 73.34 29.75"/><polygon class="cls-2" points="29.36 56.88 32.71 57.33 32.71 56.44 29.36 56.88"/></svg>