<svg id="Capa_1" data-name="Capa 1" xmlns="http://www.w3.org/2000/svg" viewBox="0 0 100 100"><defs><style>.cls-1{fill:#e15292;}</style></defs><title>incon_serv</title><path class="cls-1" d="M50,.47C26.22.47,6.88,20.31,6.88,44.69,6.88,79.1,50,99.53,50,99.53S93.12,79.1,93.12,44.69C93.12,20.31,73.78.47,50,.47ZM50,79.1A35.48,35.48,0,1,1,85.48,43.62,35.48,35.48,0,0,1,50,79.1Z"/><path class="cls-1" d="M60,39.52a2.91,2.91,0,0,0,.75,4,2.93,2.93,0,0,0,4-4.2,2.92,2.92,0,0,0-2.3-1.12h-.15A2.94,2.94,0,0,0,60,39.52Z"/><path class="cls-1" d="M39.9,28.35a4.94,4.94,0,0,0,2.35.59,5,5,0,1,0-2.35-.59Z"/><path class="cls-1" d="M52.44,25.26a5.2,5.2,0,1,0,0-10.4,5.41,5.41,0,0,0-1,.09,5.2,5.2,0,0,0-2.48,9A5.16,5.16,0,0,0,52.44,25.26Z"/><path class="cls-1" d="M67.83,50.13a8.65,8.65,0,0,0-.63-1.52,8.75,8.75,0,0,0-2.66-3,4,4,0,0,0-.8-.47,3,3,0,0,0-2.56,0,2.81,2.81,0,0,0-.62.33,7.58,7.58,0,0,0-.72.52,9.59,9.59,0,0,0-1.44,1.48,8.24,8.24,0,0,0-1.52,3.26,10.71,10.71,0,0,0-.19,2.14.71.71,0,0,0,.67.69.73.73,0,0,0,.73-.62,6.83,6.83,0,0,1,1-3.09l.45-.71V51L57.4,59.56c0,.08-.07.3,0,.36s.08.08.35.08h2L60,67.33a.86.86,0,0,0,.86.81h0a.86.86,0,0,0,.85-.81L62.16,60h.58l.34,7.33a.86.86,0,0,0,.85.81h0a.87.87,0,0,0,.86-.81l.4-7.33h1.94a.36.36,0,0,0,.29-.14.33.33,0,0,0,.08-.31L65.37,51V49.18l.46.69a6.67,6.67,0,0,1,1,3.07.73.73,0,0,0,.74.62.71.71,0,0,0,.65-.69c0-.28,0-.55,0-.83A7.17,7.17,0,0,0,67.83,50.13Z"/><path class="cls-1" d="M55.53,52.82a10.82,10.82,0,0,1,.27-2.64,9.66,9.66,0,0,1,1-2.5,9.27,9.27,0,0,1,.84-1.27,7.77,7.77,0,0,0,0-.84V35.21l.47,1a16.89,16.89,0,0,1,.9,2.51,4.41,4.41,0,0,1,3.08-1.87A21.86,21.86,0,0,0,61,33.73a16.67,16.67,0,0,0-2.19-3.58,14.2,14.2,0,0,0-1.92-2,11.62,11.62,0,0,0-1.06-.79,8.61,8.61,0,0,0-1-.54,5.63,5.63,0,0,0-6.2,1.07,16,16,0,0,0-1.14,1.18c-.31.34-.62.69-.94,1a14.1,14.1,0,0,1,6.22,9.59A18.49,18.49,0,0,1,53,42.92a3,3,0,0,1-2.93,2.9l-.32,0c.42,1.52,1.92,7,2,7.41A2.1,2.1,0,0,1,51.45,55a1.76,1.76,0,0,1-1.2.61H48l-.15,2.93.33,8a1.68,1.68,0,0,0,1.64,1.58h0a1.66,1.66,0,0,0,1.64-1.56l.68-13.44h.49l.56,13.42a1.68,1.68,0,0,0,1.64,1.58h0a1.66,1.66,0,0,0,1.64-1.56l.28-5.62a.76.76,0,0,1-.47-.31.75.75,0,0,1-.11-.62l.8-3.27L57.09,55A2.33,2.33,0,0,1,55.53,52.82Z"/><path class="cls-1" d="M50.5,54.15a.65.65,0,0,0,.15-.58L47,40.44V37.53l.45.71A9.33,9.33,0,0,1,48.66,41,14.27,14.27,0,0,1,49,43.2a1.3,1.3,0,0,0,2.6-.13c0-.58,0-1,0-1.48a13.55,13.55,0,0,0-1.76-5.9,14.43,14.43,0,0,0-4.15-4.56,8.3,8.3,0,0,0-1.31-.8l-.11,0a5,5,0,0,0-4.33,0,6,6,0,0,0-1.36.78,13.49,13.49,0,0,0-1.54,1.24,14.66,14.66,0,0,0-2.65,3.24,13.83,13.83,0,0,0-.93,1.89,11.5,11.5,0,0,0-.61,2,20.52,20.52,0,0,0-.31,2,14,14,0,0,0,0,1.45V43a1.34,1.34,0,0,0,1.25,1.32,1.33,1.33,0,0,0,1.35-1.16A14.07,14.07,0,0,1,35.49,41a9.72,9.72,0,0,1,1.19-2.76l.45-.72v2.86L33.51,53.59a.63.63,0,0,0,.15.55.68.68,0,0,0,.53.26h3.25L38,66.76a1.58,1.58,0,0,0,1.55,1.49h0a1.57,1.57,0,0,0,1.55-1.47l.68-12.38h.62L43,66.76a1.58,1.58,0,0,0,1.56,1.49h0a1.57,1.57,0,0,0,1.56-1.47l.68-12.38H50A.71.71,0,0,0,50.5,54.15Z"/></svg>