<svg id="Capa_1" data-name="Capa 1" xmlns="http://www.w3.org/2000/svg" viewBox="0 0 75.15 32"><defs><style>.cls-1{fill:#4fa2d0;}.cls-2{fill:#be3381;}.cls-3{fill:#703b8e;}</style></defs><title>logob2</title><path class="cls-1" d="M13.66,5.22c-4.55-.69-6.3-2.37-9.09-3.56C2.09.62,1.3.76,1.3.76,4.39,2.64,6.38,4.9,8.12,6.31c2.81,2.27,7.12,3.18,9.17,2.78s2.27-1.39,3.94-3C22,5.32,17.59,5.82,13.66,5.22Z"/><path class="cls-1" d="M14.65,10.24C11.11,9.66,8.72,7.92,9,8.52,9.65,10,12.87,12.18,16.61,12c1.67-.06,1.74-1.25,1.74-1.51S17,10.63,14.65,10.24Z"/><path class="cls-1" d="M17.64,12.8a10.7,10.7,0,0,1-2.22.1A17.07,17.07,0,0,1,12,12c0,.36,2.05,2.11,4.58,2.18A1.06,1.06,0,0,0,17.64,12.8Z"/><path class="cls-1" d="M17.12,15.79c.5-.17.56-1,.25-1-1.49.45-3.25-.45-3.18-.26A2.87,2.87,0,0,0,17.12,15.79Z"/><path class="cls-1" d="M17.49,16.45c-1,.29-1.69-.13-1.52.07a2.59,2.59,0,0,0,1.39.75C17.9,17.37,17.81,16.36,17.49,16.45Z"/><path class="cls-2" d="M27.78,24.51A10,10,0,0,1,24,21.94a10.58,10.58,0,0,1-2.65-6.74c-.16-3.1.86-6.19,2.17-6.8a3.83,3.83,0,0,1,4,.7,2.93,2.93,0,0,1,.92,1.55,3.15,3.15,0,0,1,.42-1.51,2.58,2.58,0,0,0-1.66-4c-2.21-.7-4.6,1-5.93,2.56a12.92,12.92,0,0,0-2.64,5.7,9.2,9.2,0,0,0,3,9.07A12.48,12.48,0,0,0,27.1,25a2.64,2.64,0,0,1,1.83,1.35A1.85,1.85,0,0,0,27.78,24.51Z"/><path class="cls-3" d="M18.16,19.16c-.28-.14-.16.33-.05,1.76l.8,10.33s.49-6.88.66-8.37c.1-.9,0-1.06-.74-2.3C18.54,20.09,18.25,19.2,18.16,19.16Z"/><path class="cls-3" d="M34.22,11.64v2.93h3.62v1.18H34.22v5.11h-1.3V10.45h5v1.19Z"/><path class="cls-3" d="M40.38,20.86H39.14V11.64h1.24Z"/><path class="cls-3" d="M41.2,14.4h1.45l2.18,4.1,2-4.1h1.39L43,24.57H41.61l2.54-4.81Z"/><path class="cls-3" d="M52.22,18.52,54.12,14,56,18.52l1.88-4.12H59.3L56,21.09l-1.89-4.33-1.9,4.33L48.93,14.4h1.41Z"/><path class="cls-3" d="M65.86,20.86H64.62v-.65s-.5.88-2.23.88c-2,0-3.09-1.65-3.09-3.5a3.16,3.16,0,0,1,3.05-3.38c1.79,0,2.27.91,2.27.91V14.4h1.24Zm-1.17-3.23a2.09,2.09,0,1,0-4.15,0,2.09,2.09,0,1,0,4.15,0Z"/><path class="cls-3" d="M66.79,14.4h1.45l2.18,4.1,2-4.1h1.4L68.61,24.57H67.2l2.54-4.81Z"/></svg>