<svg id="Capa_1" data-name="Capa 1" xmlns="http://www.w3.org/2000/svg" viewBox="0 0 100 100"><defs><style>.cls-1{fill:#4fa2d0;}.cls-2{fill:#be3381;}.cls-3{fill:#703b8e;}</style></defs><title>logo_flyway_v</title><path class="cls-1" d="M38.78,12.29c-12-1.83-16.64-6.26-24-9.39C8.22.13,6.13.5,6.13.5c8.15,5,13.41,11,18,14.67,7.42,6,18.81,8.41,24.23,7.35,5.72-1.12,6-3.67,10.41-8C60.72,12.56,49.16,13.87,38.78,12.29Z"/><path class="cls-1" d="M41.38,25.55C32.05,24,25.72,19.43,26.43,21c1.74,3.93,10.26,9.66,20.14,9.29,4.42-.16,4.61-3.29,4.61-4C51.18,25.28,47.69,26.58,41.38,25.55Z"/><path class="cls-1" d="M49.3,32.32c-.49-.14-2.07.61-5.88.27-5.53-.49-9.17-2.73-9.17-2.37,0,1,5.43,5.59,12.1,5.78A2.8,2.8,0,0,0,49.3,32.32Z"/><path class="cls-1" d="M47.92,40.22c1.31-.43,1.47-2.78.67-2.54-4,1.19-8.59-1.18-8.41-.69C41,39.08,45.37,41.05,47.92,40.22Z"/><path class="cls-1" d="M48.89,42c-2.69.74-4.45-.36-4,.18a6.92,6.92,0,0,0,3.68,2C50,44.4,49.74,41.74,48.89,42Z"/><path class="cls-2" d="M76.1,63.27A26.52,26.52,0,0,1,66,56.48c-4.55-4.65-6.7-11.68-7-17.81-.41-8.21,2.28-16.35,5.74-18,4.48-2.11,8.82.42,10.52,1.86a8,8,0,0,1,2.43,4.09s.08-2.69,1.1-4c1.85-2.37,2.19-8.41-4.39-10.49-5.84-1.84-12.15,2.65-15.66,6.77a34.25,34.25,0,0,0-7,15.07,24.31,24.31,0,0,0,8,24c5.18,4.39,10.07,5.42,14.57,6.62,3.85,1,4.85,3.57,4.85,3.57A4.87,4.87,0,0,0,76.1,63.27Z"/><path class="cls-3" d="M50.68,49.13c-.76-.37-.43.86-.14,4.65s2.11,27.3,2.11,27.3S53.93,62.9,54.39,59c.27-2.36,0-2.79-1.94-6.07C51.67,51.58,50.9,49.24,50.68,49.13Z"/><path class="cls-3" d="M28,82.63v3.82H32.7V88H28v6.67H26.28V81.08h6.58v1.55Z"/><path class="cls-3" d="M36,94.68H34.4V82.63H36Z"/><path class="cls-3" d="M37.09,86.24H39l2.85,5.36,2.66-5.36h1.82L39.47,99.52H37.63L41,93.24Z"/><path class="cls-3" d="M51.48,91.61,54,85.77l2.47,5.84,2.45-5.37h1.84L56.45,95,54,89.32,51.48,95l-4.29-8.73H49Z"/><path class="cls-3" d="M69.31,94.68H67.69v-.85S67,95,64.78,95c-2.58,0-4-2.15-4-4.56a4.15,4.15,0,0,1,4-4.43c2.34,0,3,1.2,3,1.2v-.94h1.62Zm-1.53-4.22A2.73,2.73,0,1,0,65,93.53,2.77,2.77,0,0,0,67.78,90.46Z"/><path class="cls-3" d="M70.53,86.24h1.89l2.85,5.36,2.66-5.36h1.82L72.91,99.52H71.07l3.32-6.28Z"/></svg>