<svg id="Capa_1" data-name="Capa 1" xmlns="http://www.w3.org/2000/svg" viewBox="0 0 100 100"><defs><style>.cls-1{fill:#bd3180;}</style></defs><title>incon_serv</title><path class="cls-1" d="M31.87,45.28,34,62.6H65.85l2.5-17.32L50,31.77Zm17.48,13.1H42.73l-.42-6.53h7Zm0-7.75H42.23l-.48-7.54h7.6Zm8.9-7.54-.54,7.54H50.65V43.09Zm-7.6,8.76h7l-.47,6.53H50.65Z"/><polygon class="cls-1" points="50.2 19.19 46.75 21.88 46.44 25.56 46.42 28.86 36.56 36.11 35.92 30.33 31.66 33.66 25.14 48.44 50.2 29.89 74.86 48.44 68.23 33.56 50.2 19.19"/><polygon class="cls-1" points="45.65 28.34 45.65 25.98 36.2 25.98 37.18 34.58 45.65 28.34"/><path class="cls-1" d="M46,22h-8.4l-1.31,3.07h9.41Zm-1.55,2.48H38l.76-1.89h5.91Z"/><path class="cls-1" d="M50,.47C26.22.47,6.88,20.3,6.88,44.68,6.88,79.09,50,99.52,50,99.52S93.12,79.09,93.12,44.68C93.12,20.3,73.78.47,50,.47Zm0,78.62A35.48,35.48,0,1,1,85.48,43.62,35.48,35.48,0,0,1,50,79.09Z"/></svg>