<svg id="Capa_1" data-name="Capa 1" xmlns="http://www.w3.org/2000/svg" viewBox="0 0 100 100"><defs><style>.cls-1{fill:#003886;}</style></defs><title>incon_serv</title><path class="cls-1" d="M75.19,29.29,48,30.48l-26,8,.28,1.62,11.48,1,3.63,10.82S45.43,56.21,52.22,55c3.64-.62,7.08-2.87,9.51-4.83L62,52a.81.81,0,0,0-.12.57.83.83,0,0,0,.33.52c-.43.76-.81,2.51-.13,6.52a1.55,1.55,0,0,0,.61.19,2,2,0,0,0,.21.45h0a2.94,2.94,0,0,0,0-.42,4.39,4.39,0,0,0,.63,0,3.33,3.33,0,0,0,.21.48h0a2.9,2.9,0,0,0,0-.51l.26,0,.31-.07a3.26,3.26,0,0,0,.15.44h0a2.73,2.73,0,0,0,.06-.49c.18,0,.34-.11.47-.16,0,.12.08.23.13.35h0a1.74,1.74,0,0,0,.06-.45,1.54,1.54,0,0,0,.58-.41c-.69-4-1.63-5.53-2.29-6.1a.93.93,0,0,0,.14-.61.84.84,0,0,0-.35-.54l-.1-.72c-.07-.54-.16-1.17-.26-1.85,1.34-1.19,2.15-2.08,2.15-2.08L65,35.64l10.51-4.73ZM22.36,38.76l26.89.92.4,2.32L22.53,39.74Zm27.53.81,9.36-3.67h0a2.8,2.8,0,0,1,.21.63,1,1,0,0,0,0,.14c0,.2.1.42.15.68l0,.2,0,.1-9.43,4.24-.22-1.3h0Zm2.25,15c-6,1-13.21-2.48-14.38-3.09l-.32-.95c2.5,1.17,9,3.79,14.49,2.84,3.59-.61,7-2.78,9.57-4.76,0,.26.07.53.11.79l0,.25C59.26,51.61,55.78,53.94,52.14,54.57Zm13.37,4.27-.23.15a4.48,4.48,0,0,0-.14-.73,10.52,10.52,0,0,0-.48-1.47h0c.05.25.1.5.14.75s.08.51.11.76a6.56,6.56,0,0,0,.09.76s0,0,0,.07a2.3,2.3,0,0,1-.4.14,4.5,4.5,0,0,0-.15-.8c-.06-.26-.12-.53-.19-.79s-.14-.53-.23-.79h0c.07.54.14,1.08.2,1.61a7.4,7.4,0,0,0,.08.81v0l-.29.06-.22,0a7.08,7.08,0,0,0-.16-.8q-.09-.4-.15-.81c-.06-.27-.1-.54-.14-.81h0c0,.27,0,.55,0,.82s0,.55.05.82a5.3,5.3,0,0,0,.1.8,3.47,3.47,0,0,1-.55,0v0c0-.25-.1-.5-.14-.75s-.09-.5-.13-.76l-.12-.76h0c0,.26,0,.52,0,.78s0,.51,0,.77a5.51,5.51,0,0,0,.07.71l-.21-.06c-.66-3.92-.25-5.51.12-6.15h0a1,1,0,0,0,.46,0,1,1,0,0,0,.42-.19C63.91,53.55,64.82,54.92,65.51,58.84Zm-2.12-6.55a.6.6,0,0,1-.52.66.59.59,0,0,1-.7-.45.6.6,0,0,1,.51-.66A.61.61,0,0,1,63.39,52.29Zm-.76-.76a1,1,0,0,0-.38.15h0c-.07-.54-.14-1.09-.22-1.64l-.1-.69c0-.32-.09-.64-.14-1h0c0-.38-.11-.75-.16-1.14-.12-.82-.25-1.65-.37-2.47-.06-.34-.11-.69-.16-1s-.14-.9-.21-1.34c0-.22-.07-.43-.11-.64-.1-.64-.21-1.25-.3-1.82s-.24-1.29-.34-1.81l0-.23,0-.06h0l0-.14c0-.08,0-.15-.05-.22l0-.2c-.06-.26-.11-.49-.16-.69s0-.1,0-.14a3.8,3.8,0,0,0-.22-.67h0l0-.1,0,0,0,0a7.49,7.49,0,0,0-2.59-.36l-.73-.05-2.06-.09-.45,0-.92,0-2.11,0h-.12a4.28,4.28,0,0,1-1.59.56c-1.24.22-2.31,0-2.39-.48s.85-1,2.09-1.26,2.31,0,2.39.49a.47.47,0,0,1-.11.36l1.91,0h.72c2.58.08,4.45.2,5.57.35l.14,0,.27,0,.23,0a1.11,1.11,0,0,1,.45.16l.06,0v0l0,0h0a2.22,2.22,0,0,1,.11.25l0,.11c0,.12.09.26.13.42s.12.47.18.76l0,.14h0c0,.19.09.39.13.61l0,.17c0,.24.09.5.14.78s.14.73.21,1.16h0c0,.17.06.35.1.53l.09.58c0,.2.07.4.1.61l.06.33c0,.22.07.44.11.68.09.59.19,1.22.29,1.91l.07.4c.06.46.14.93.21,1.42s.13.92.2,1.39c0,.23.06.45.1.68.14,1,.26,1.85.36,2.59l.07.51A.81.81,0,0,0,62.63,51.53Zm.29-3,0-.16-.12-.82c.77-.66,1.41-1.26,1.87-1.71v1C64.41,47.13,63.79,47.76,62.92,48.55ZM61,37.06V37c-.07-.29-.13-.55-.19-.77s-.09-.32-.13-.45,0-.07,0-.11-.08-.19-.11-.26l14.39-5.65.17,1Z"/><path class="cls-1" d="M50,.48C26.23.48,6.89,20.31,6.89,44.69,6.89,79.1,50,99.52,50,99.52S93.11,79.1,93.11,44.69C93.11,20.31,73.77.48,50,.48ZM50,79.1A35.48,35.48,0,1,1,85.47,43.62,35.47,35.47,0,0,1,50,79.1Z"/></svg>