<svg id="Capa_1" data-name="Capa 1" xmlns="http://www.w3.org/2000/svg" viewBox="0 0 100 100"><defs><style>.cls-1{fill:#4da2cf;}</style></defs><title>incon_serv</title><path class="cls-1" d="M50,.48C26.23.48,6.89,20.31,6.89,44.69,6.89,79.1,50,99.52,50,99.52S93.11,79.1,93.11,44.69C93.11,20.31,73.77.48,50,.48ZM50,79.1A35.48,35.48,0,1,1,85.47,43.62,35.47,35.47,0,0,1,50,79.1Z"/><path class="cls-1" d="M72.5,31l-9.18-.6L51.57,29.6l-12-.78a1.71,1.71,0,0,0-.32,0h0a1.63,1.63,0,0,0-.45.09c-2,.45-9.8,2.17-11.16,2.91a2.56,2.56,0,0,0-1.56,2.08V54.53h0v.13h0a2.07,2.07,0,0,0,1.56,1.62c1.39.47,8.4,2.37,10.83,3a1.85,1.85,0,0,0,.81.22h.32L72.5,56.26a1.76,1.76,0,0,0,1.41-1.83V32.75A1.7,1.7,0,0,0,72.5,31Zm-34,27-1.21-.29,0-27,1.24-.29C38.5,30.5,38.5,57.88,38.52,58Zm19-4.15c-5.19.43-9.68-3.94-9.68-9.79s4.49-10.39,9.68-10.12c4.86.24,8.57,4.63,8.57,9.8S62.43,53.42,57.57,53.83Z"/><path class="cls-1" d="M61.88,41.61H59.64V39.09a1.21,1.21,0,0,0-1.12-1.26l-1.83,0A1.19,1.19,0,0,0,55.52,39v2.6H53.07a1.29,1.29,0,0,0-1.23,1.31V45a1.23,1.23,0,0,0,1.23,1.27l2.45-.09V48.8A1.14,1.14,0,0,0,56.69,50l1.83-.11a1.27,1.27,0,0,0,1.12-1.3V46.06L61.88,46A1.18,1.18,0,0,0,63,44.74V42.82A1.15,1.15,0,0,0,61.88,41.61Z"/><path class="cls-1" d="M51,26.91a1,1,0,0,1,1.06-1l4,.32a1,1,0,0,1,.92,1v1.68l2.74.19V26.46A3.19,3.19,0,0,0,57,23.22l-6.13-.61a2.84,2.84,0,0,0-.83.05c-1.18.15-3.52.75-3.52,3.15V28.2l4.44.31Z"/></svg>