<svg id="Capa_1" data-name="Capa 1" xmlns="http://www.w3.org/2000/svg" viewBox="0 0 100 32"><defs><style>.cls-1{fill:#703b8e;}</style></defs><title>logob</title><path class="cls-1" d="M11.54,4.23v5.86H18.8v2.36H11.54V22.74H8.94V1.84H19.05V4.23Z"/><path class="cls-1" d="M23.9,22.74H21.4V4.26h2.5Z"/><path class="cls-1" d="M25.54,9.76h2.91L32.83,18l4.08-8.24h2.8L29.2,30.16H26.35l5.1-9.64Z"/><path class="cls-1" d="M47.65,18l3.8-9,3.81,9L59,9.76h2.84L55.27,23.18,51.45,14.5l-3.82,8.68L41,9.76h2.84Z"/><path class="cls-1" d="M75,22.74H72.54V21.42s-1,1.76-4.47,1.76c-3.95,0-6.2-3.3-6.2-7,0-3.55,2.35-6.78,6.13-6.78,3.59,0,4.54,1.84,4.54,1.84V9.8H75Zm-2.35-6.49c0-2.52-1.53-4.66-4.21-4.66s-4.1,2.25-4.1,4.66S65.84,21,68.47,21,72.68,18.8,72.68,16.25Z"/><path class="cls-1" d="M76.9,9.76h2.91L84.18,18l4.08-8.24h2.8L80.59,30.16H77.75l5.09-9.64Z"/></svg>