<svg id="Capa_1" data-name="Capa 1" xmlns="http://www.w3.org/2000/svg" viewBox="0 0 32 32"><defs><style>.cls-1{fill:#4fa2d0;}.cls-2{fill:#be3381;}.cls-3{fill:#703b8e;}</style></defs><title>logob_</title><path class="cls-1" d="M14,4.92C9.36,4.21,7.57,2.49,4.7,1.27,2.16.2,1.35.34,1.35.34,4.52,2.28,6.56,4.6,8.35,6c2.88,2.34,7.31,3.27,9.42,2.86s2.33-1.43,4-3.12C22.57,5,18.08,5.54,14,4.92Z"/><path class="cls-1" d="M15.05,10.08C11.43,9.48,9,7.7,9.24,8.32c.68,1.52,4,3.75,7.83,3.61,1.72-.06,1.79-1.28,1.79-1.55S17.51,10.48,15.05,10.08Z"/><path class="cls-1" d="M18.13,12.71a10.09,10.09,0,0,1-2.28.11,18.52,18.52,0,0,1-3.57-.92c0,.37,2.11,2.17,4.71,2.24A1.08,1.08,0,0,0,18.13,12.71Z"/><path class="cls-1" d="M17.6,15.78c.51-.17.57-1.08.26-1-1.54.46-3.34-.46-3.27-.27A2.92,2.92,0,0,0,17.6,15.78Z"/><path class="cls-1" d="M18,16.47c-1,.29-1.73-.14-1.56.07a2.69,2.69,0,0,0,1.43.76C18.4,17.41,18.31,16.37,18,16.47Z"/><path class="cls-2" d="M28.55,24.75a10.37,10.37,0,0,1-3.93-2.65,10.87,10.87,0,0,1-2.72-6.92c-.16-3.19.89-6.36,2.23-7a3.94,3.94,0,0,1,4.09.72,3.11,3.11,0,0,1,1,1.59A3.25,3.25,0,0,1,29.6,9a2.65,2.65,0,0,0-1.71-4.08c-2.27-.71-4.73,1-6.09,2.64a13.39,13.39,0,0,0-2.72,5.85,9.48,9.48,0,0,0,3.1,9.32,12.76,12.76,0,0,0,5.67,2.58,2.71,2.71,0,0,1,1.88,1.38A1.87,1.87,0,0,0,28.55,24.75Z"/><path class="cls-3" d="M18.67,19.25c-.3-.15-.17.33-.05,1.8s.81,10.62.81,10.62.5-7.07.68-8.6c.11-.92,0-1.09-.75-2.37C19.05,20.2,18.75,19.29,18.67,19.25Z"/></svg>